/* XPM */
static char *result[] = {
/* columns rows colors chars-per-pixel */
"40 40 23 1 ",
"  c #3E9987",
". c #3E9985",
"X c #429D87",
"o c #3C9987",
"O c #409B87",
"+ c #3E9B87",
"@ c #449D87",
"# c #3C9787",
"$ c #429B87",
"% c #3C9785",
"& c #409987",
"* c #3E9787",
"= c #3C9985",
"- c #449D89",
"; c #3E9785",
": c #469D89",
"> c #429D89",
", c #449B87",
"< c #409D87",
"1 c #469F89",
"2 c #489F89",
"3 c #469D87",
"4 c #449F89",
/* pixels */
", .  *;@$;*  .$,&;;;;; ..%;*$,$$;;;;;;.,",
"$@ ;;&,33,,O..$$%%%%%;;;.+O,&;%%%%%%%%;.",
" @$  ,$&  O&&%%@&%;;;%%;;&$;%%;;;;;;;;%;",
";%&@$&.. .;%&&&,;%;%;;;%;$.%;;%%%;%;;%;;",
";%%@$;***;%*%,3;%;%;;%;%O&%;;%%;%;;;%;%%",
"**%$@& ;%#%%%&$%;;;;;;%%$;%%;;;%;;;;;;%;",
";;#.3$ ;#%;.. &.%;;%;;%%$..*%;;%;;;%;;%;",
"**%&2$ ;*;.  ;%.*%%;%;%%$ ..;#;;%;%;;%;;",
"**%&@OO. .;%%%;;..;%%;;%,&%; %%;;;;;%;;*",
"%%%&$. .%%;.;%;;#..;;;%;,$$$$$&%;;%%. %%",
"$$&$$%***** ;;%;;;..%;&$&%;;.&$;%;; $&$X",
"$$$3,;%;..;;%%;%;;. &$$$$&;%%&$;.; O&@$&",
"%%..$,$;%;%%;;%;%;%&$ ;;; ,&$$O** .;&$%%",
"*%.;%&,&%;%;;%;;%;%; ; ;%;3, %+*;..  $ *",
"*#*  ;;&&%;;%%;;;;%; ;;;  $%%  ;#; .;$&;",
";%*; & ;$;%;;;;;;%%. .&&.&O&* ;#**; &$ ;",
".;    O;$&%;%%%%%;;. O* ; .$$.;*;  ;O$; ",
"* ,@@O..$&#**%&,$@;#;*;; ;  &$ ; ;;;O3;;",
" @@.;$$$$%;;#&,O.$&%*;  ; ;..&&;;&&&@,$.",
"@$O;*;&,$%#%%,$ %;$;%#*    ;;%&$$$$$$;$$",
"&%.%* ;;,$; $,.;;%&$&;;;;;;;;%%.&  &&;% ",
"%*.;;  . ,$,$ %%;;%%&$$ &$$$.%;%%. *$;%$",
"%%..;**;%%;%%;%%;%;%%,$,$&&&$;%;;%%;$*%$",
"&# %#%#;;;%%;%;;%;%.$&; ; * $%;;;;%;$ ; ",
"3$%%*;*;;%;;;;%%;;%;;; *; #*&%%%;;%;$ .%",
"$$&%#%#;;%;;%;;;;%;%; ;*; .%;;;;%%;&$*;&",
"..$&.   ;%;%;;;;;;;%;*;*#*.;%$,$&$,O..&&",
" .$$.....;%;%%;;%;;%..;#%*.;%,;;$2&*&&,;",
"%#%$$&&&$,%;;%%%;;%.& &*% ;%&@;#.$@$$,&.",
";*; $$$$$,;%;;;%;;%$&%. ..%&$;%;%$O*;$O%",
"*;..;;;;;$%.;%%;%%;$$&&$O$3&%%;;%&&;;&3*",
"   *   *&$&&;;%%***$$,$$$,$%;;%;%;;; .,$",
";;%;; ;&$;;&O%*&$$,&;%%%%%%;;%;%;%%%;*;$",
"$$&*  &$%##&$$$$;%%%%;;;;;;%%;%;%;;;%;*$",
"O&&&&&O **#&O&;%*%%;;;%%%%%;%;%%;;%;%%%$",
"...$$$.& ;%&$ %%%%%;%;;;;;;%;;;%;;;%;$$&",
"#&$$$&@$O@,@$@$$.;;;;;;;;;%;%%%;%%;%.,;%",
"$$.; OO@@,&   &O,&%;%;;;;;;%;&;%;%;#;&;$",
"&;  ;&;,&;;;;;..&&%;%;;;;;;;%,;%*##*%.3,",
";    O;,&;   &; $&%;%;;;;;;;%$$%*%;; *$,"
};
