/* XPM */
static char *result[] = {
/* columns rows colors chars-per-pixel */
"40 40 256 2 ",
"   c #3E9987",
".  c #3E9B87",
"X  c #3E9785",
"o  c #3C9987",
"O  c #409B87",
"+  c #3E9985",
"@  c #449D87",
"#  c #3C9785",
"$  c #3C9787",
"%  c #429B87",
"&  c #40998B",
"*  c #409987",
"=  c #149338",
"-  c #6E4130",
";  c #481A19",
":  c #429D87",
">  c #224921",
",  c #20481E",
"<  c #5E3222",
"1  c #077834",
"2  c #21461E",
"3  c #149138",
"4  c #3C9F8C",
"5  c #077B36",
"6  c #38987C",
"7  c #1C9446",
"8  c #6F4230",
"9  c #128B38",
"0  c #3F9D8B",
"q  c #0C8136",
"w  c #5F3324",
"e  c #481D1B",
"r  c #419B8A",
"t  c #166432",
"y  c #5B3222",
"u  c #3E9989",
"i  c #3D9787",
"p  c #067A33",
"a  c #3F9B89",
"s  c #6C402E",
"d  c #459D8C",
"f  c #16933A",
"g  c #704030",
"h  c #3C9D8B",
"j  c #087E34",
"k  c #429C8D",
"l  c #573121",
"z  c #5E3428",
"x  c #05752F",
"c  c #10662D",
"v  c #4F2616",
"b  c #459D88",
"n  c #0E8537",
"m  c #522B1C",
"M  c #673B2A",
"N  c #419885",
"B  c #30976B",
"V  c #2D936A",
"C  c #461213",
"Z  c #0E8336",
"A  c #109130",
"S  c #129534",
"D  c #714130",
"F  c #471010",
"G  c #145929",
"H  c #6C3C2C",
"J  c #330F09",
"K  c #3B9682",
"L  c #129738",
"P  c #442317",
"I  c #5C3326",
"U  c #1F5A28",
"Y  c #623726",
"T  c #704432",
"R  c #419B8C",
"E  c #5B3121",
"W  c #491314",
"Q  c #249654",
"!  c #186029",
"~  c #612E25",
"^  c #2A8D67",
"/  c #5E3624",
"(  c #4F2818",
")  c #461818",
"_  c #408071",
"`  c #653929",
"'  c #3E2016",
"]  c #119331",
"[  c #461616",
"{  c #3D9A7C",
"}  c #3B9482",
"|  c #512818",
" . c #16913A",
".. c #562C1C",
"X. c #45A08D",
"o. c #612B21",
"O. c #4A332E",
"+. c #149336",
"@. c #572D1D",
"#. c #3B1E14",
"$. c #491817",
"%. c #3F9583",
"&. c #4B2314",
"*. c #4A463E",
"=. c #35170E",
"-. c #204219",
";. c #381C12",
":. c #469D89",
">. c #12993B",
",. c #0F7132",
"<. c #148E3A",
"1. c #38977B",
"2. c #331B11",
"3. c #157B33",
"4. c #4A4B2B",
"5. c #30956A",
"6. c #13602D",
"7. c #149135",
"8. c #169537",
"9. c #157233",
"0. c #743E2F",
"q. c #22441E",
"w. c #15943C",
"e. c #1C5623",
"r. c #3A7135",
"t. c #3DA38F",
"y. c #472C29",
"u. c #5C4028",
"i. c #49443D",
"p. c #744131",
"a. c #166028",
"s. c #309868",
"d. c #326B30",
"f. c #0E9736",
"g. c #713F2E",
"h. c #16913C",
"j. c #0E5722",
"k. c #257752",
"l. c #733A2A",
"z. c #225528",
"x. c #4F3F22",
"c. c #623826",
"v. c #126C30",
"b. c #137730",
"n. c #145726",
"m. c #4E312A",
"M. c #3E7E70",
"N. c #228C55",
"B. c #145E2C",
"V. c #227930",
"C. c #1C8C3D",
"Z. c #438273",
"A. c #267D59",
"S. c #264E25",
"D. c #3D3E31",
"F. c #477967",
"G. c #1E5024",
"H. c #3C9982",
"J. c #448F7B",
"K. c #43A294",
"L. c #12833C",
"P. c #2C6D4B",
"I. c #017A31",
"U. c #562719",
"Y. c #3C9C8B",
"T. c #5E3022",
"R. c #418573",
"E. c #158435",
"W. c #3F9F8D",
"Q. c #29955E",
"!. c #249353",
"~. c #429180",
"^. c #511D10",
"/. c #412316",
"(. c #675543",
"). c #0A672E",
"_. c #1D4B1E",
"`. c #0A7C36",
"'. c #672E24",
"]. c #18854B",
"[. c #414A28",
"{. c #087836",
"}. c #393C25",
"|. c #0A622B",
" X c #0F8E31",
".X c #466E5E",
"XX c #3E1C13",
"oX c #0A872E",
"OX c #118838",
"+X c #449B87",
"@X c #408B77",
"#X c #366E33",
"$X c #25723E",
"%X c #4C2B1E",
"&X c #34632F",
"*X c #4C201E",
"=X c #008437",
"-X c #546B59",
";X c #469B85",
":X c #42522C",
">X c #404224",
",X c #227650",
"<X c #3C9985",
"1X c #329A6E",
"2X c #2E8B69",
"3X c #673626",
"4X c #574628",
"5X c #1D8437",
"6X c #309366",
"7X c #3B9985",
"8X c #2C603F",
"9X c #1C9143",
"0X c #595B4A",
"qX c #3C2618",
"wX c #137C43",
"eX c #675B47",
"rX c #483C1C",
"tX c #424234",
"yX c #369772",
"uX c #2E6A30",
"iX c #623A2A",
"pX c #128136",
"aX c #2E140C",
"sX c #503620",
"dX c #48321C",
"fX c #26662C",
"gX c #203A16",
"hX c #0C521A",
"jX c #4A584E",
"kX c #38542E",
"lX c #2E8568",
"zX c #2E8566",
"xX c #46281C",
"cX c #6E503E",
"vX c #249556",
"bX c #429D89",
"nX c #4A6232",
"mX c #3C9585",
"MX c #247650",
"NX c #2A8160",
"BX c #704634",
"VX c #46602E",
"CX c #784434",
"ZX c #38815C",
"AX c #423E30",
"SX c #409787",
"DX c #349F7A",
"FX c #207848",
"GX c #249D4E",
"HX c #2C8550",
"JX c #18683C",
"KX c #4C3C36",
"LX c #444C3E",
"PX c #446842",
"IX c #425E4E",
"UX c #0EA13C",
/* pixels */
"+X  +       X @ % X       + % +X* X X X X X . t.KXC _ Y.% b % % X X X X X X + +X",
"% b   X X * +Xb b +X+XO + + % % i # # # # i @XR.O.C Z.X.* X # # # # # # # # X + ",
"* +X+X    +X% *     O * * i i b * # X X mXh *.F e ; Z.0 mX# X X X X X X X X # X ",
"4 h O @ % * + +   + X i * * * +XX # X X mXh i.F e ) _ Y.X X i i # X i X X # X X ",
"F.F.%.+X% X       X i   # +Xb X i X i X mXh *.F e ) M.Y.X # # X i X X X i X # i ",
"W *X~.t.+X*   X i i i i i * % i X X X X mXh *.W *Xe _ Y.X X X i X X X X X X i X ",
"[ *XjX.X:.+X  X i i X + +   * + i X X X mXh *.W e ; _ 0 mXX X i X # # # X X # X ",
"[ ; F m.;X%   X   X +     X # +   i # X mXh *.W *Xe _ 0 X i X X # # # X X # X X ",
"[ ; [ O.;XO O +   + X i i i X X + + X # mXh i.F e ) _ h + i i X # # # X # X X i ",
"[ ; [ O.;X  + + i i X + X i X X i + + X X h i.F e ) Z.X.% % * #   u   # +   i i ",
"e *X$.O.;Xi X           X X # X X X + + mX0 *.C e e _ a X   % r lXJXNXr % * % : ",
"[ ; W O.;Xi i X + + X X # # X # X X + + + d HXb.ZXZ.} $ i * N R A.hXMXk * @ % * ",
"; e $.O.;Xb % X i X # # X X # X # X # * % & Q ] 1Xk % * % % * k NXj.k.0 + % # i ",
"; e $.O.%.* +X* # X i X X # X X i X # X + & !.A V & @ +X  i H.H.A.j.k.r X *     ",
"W $.W O.N   X * * # X X i i X X X X # X + & vXA B & % i mX& V `.9.q.P.k # % * X ",
"y.y.xXAXN O   X % X # X X X X X X # # + + & vXA B r O * X k 2XI.v.-.P.W.+ %   X ",
"SX1.<.9X+   O X % * i X i i # i i X X + + r vXA 5.R + % % R ^ p ,.G ,X0 O % X   ",
"u 6 3 7 : O + + % * i     i * +X% @ X i i u vX7.B & + + X d ^ j {.n.,Xa O b X X ",
"* { f 7 X % % % % i X X i * +XO + % * i i u N.oXV & X R r d s.S pXn.k.X.:.+X% + ",
"d {  .7 #   * +X% i i i i +X%   i X % X # & ].x ^ r # lXzXi 5.+.pXG FX1X{   % O ",
"r 1. .7 X   X X +X% X   % +X+ X X i * % * & N.oXV R } 6.6.} 5.S pXG 9.] 6X& i & ",
"u 1. .7 #   + +   +X% +X% + i # # # # i N d Q ] B d H.t t } 5.+.L.).3.+.s.& Q.Q.",
"u 1.f 7 #   X X i # X X #     a O O O a o d Q A B d %.t t } 5.S <.{.L.+.s.R 9XA ",
"& 1.Z ].#   i X X i # o ~.eXeXtXD.D.D.D..XK.!.A 5.R K t t } V q q {.n L $X8X5Xf ",
":.{ 1 wXK   i X X X N a J.p.g.;.J J aXJ kXGXC.3 5.R } t t %.^ x 5 {.Z L ! gX3.L ",
"bX{ OX9X# i i X 4 -XcX(.(.%XxX#.' z l &.sXu.r.f.5.R } U G.wXL.9 OX1 Z +.E.3.9 3 ",
"a 6 3 7 X + + %.N 0Xl.p.g.#.2.;.' p.M v @.'.nX8.6X& %.S.> x q 8.9 1 n 7.+.8.+.3 ",
"u 6 3 7     t.IX' /././.P iXM ( &.m ..E < w c.c.F.W.yX9.,.{.q +. .9 <.+.3 7.9.c ",
"u 1. .7 { @XJ.LXJ ;.' #.' s - ..| | ..w w w / o.-X@XC.j 5 5 q 3 h.f  .3 3 3 v.G ",
"u 1. .h.>.r.CXl aXl g s s m | v | H M T.T.w / w / z z.1 `.{.q 3  . . .3 n `.c B.",
"u 1.h.h.w.r.g m.2.l - s s y l l y T s ` ` c.c.< w / z.1 `.5 q  .h. .h. .Z {.c B.",
"u 1.f 3 >.fX=.=.2./.| ( ( s T 8 g g g g g 8 M < / w U I.5 {.q =  .=  .3 Z 5 c B.",
"  1.<.9 >.uXe P P %Xl y y - BXT 8 8 8 8 8 T M y / w [.&X3.5 q 9 9 <.<. .Z 5 6.G ",
"X.H.`.q w.r.~ z z z z s T T T T p.0.D 8 8 8 ` E w w ~ 3XC.=X{.5 `.{.n 8.Z {.e.2 ",
"^ N.t 9.>.#X~ I I I I ` H 8 8 3X4X:Xu.g.8 g M Y w w < / VX&X3.c ,.p q OXj 5 e.2 ",
"I.,.q.U L #X~ ~ ~ w z z z 8 T U.}.).>X0.8 g 8 D M w w w '.u.V.-.U j 5 5 5 `.e.2 ",
"! ! 2 U = 5X&Xd.d.>Xe m @.y / 3X[.|.4.0.- g T g Y ..@...U.x.V.2 z.! ! ! ! ! G.2 ",
"q.> > U = f f.L UXS.=.P | v ( p.4.|.4.0.- g T D y &.v ( v x.V., > 2 > q.2 2 2 , ",
", > > G.e.$XDXPXrXdX&.l y T.4.9.fX_.4.CXY @.y @.c.M P #.XXqXz., > > > , > , e.G ",
", > > > q.8XK.0X^.U.| y z ~ :X=X).q.4Xp.< &.m v M D ' 2.=.2.q., > > > , > , G 6."
};
