/* XPM */
static char *result[] = {
/* columns rows colors chars-per-pixel */
"40 40 256 2 ",
"   c #3E9987",
".  c #3E9985",
"X  c #3C9987",
"o  c #429D87",
"O  c #409B87",
"+  c #3E9B87",
"@  c #449D87",
"#  c #3C9787",
"$  c #429B87",
"%  c #3C9785",
"&  c #409987",
"*  c #3E9787",
"=  c #3E9785",
"-  c #449D89",
";  c #429987",
":  c #3C9985",
">  c #449B87",
",  c #3A9787",
"<  c #429D89",
"1  c #409D87",
"2  c #3E9D87",
"3  c #469D89",
"4  c #469B87",
"5  c #3E7485",
"6  c #389785",
"7  c #569F87",
"8  c #6CA587",
"9  c #78AB89",
"0  c #263268",
"q  c #62A486",
"w  c #469F89",
"e  c #3D5982",
"r  c #3A9583",
"t  c #409A85",
"y  c #3A9785",
"u  c #4E9D87",
"i  c #2C406F",
"p  c #449987",
"a  c #263568",
"s  c #2A5272",
"d  c #75A987",
"f  c #78A987",
"g  c #347C7C",
"h  c #4B9D85",
"j  c #489B87",
"k  c #429989",
"l  c #449F89",
"z  c #369687",
"x  c #67A78B",
"c  c #509F88",
"v  c #28386B",
"b  c #5CA28E",
"n  c #83B294",
"m  c #379585",
"M  c #489F89",
"N  c #4B9E89",
"B  c #3C9486",
"V  c #58A087",
"C  c #71AB88",
"Z  c #3C9B88",
"A  c #429F89",
"S  c #C1DBDD",
"D  c #708FA7",
"F  c #8FB993",
"G  c #C9DFE3",
"H  c #4A9D87",
"J  c #329985",
"K  c #60A387",
"L  c #83AD87",
"P  c #358481",
"I  c #5CA187",
"U  c #C5DDE0",
"Y  c #ABB989",
"T  c #7BAB87",
"R  c #5AA187",
"E  c #6D8DA6",
"W  c #357C7E",
"Q  c #78918F",
"!  c #489D87",
"~  c #69A687",
"^  c #389787",
"/  c #3B6881",
"(  c #429A85",
")  c #B4CCD5",
"_  c #3D9E88",
"`  c #6FAA8C",
"'  c #C3DEE0",
"]  c #41A289",
"[  c #3A9987",
"{  c #9FC9C5",
"}  c #69A78F",
"|  c #469B89",
" . c #73AA92",
".. c #43668C",
"X. c #409787",
"o. c #CCE3E6",
"O. c #32582E",
"+. c #385078",
"@. c #76A381",
"#. c #347E7E",
"$. c #6AA583",
"%. c #3C5E85",
"&. c #52A189",
"*. c #56A18D",
"=. c #89B797",
"-. c #6A89A5",
";. c #4C9D87",
":. c #4E6E93",
">. c #222C66",
",. c #62A38B",
"<. c #6CA789",
"1. c #78AF93",
"2. c #385881",
"3. c #445E87",
"4. c #4A9B87",
"5. c #3E8787",
"6. c #7291A9",
"7. c #469985",
"8. c #95B383",
"9. c #526A8B",
"0. c #56A387",
"q. c #303E70",
"w. c #8BB793",
"e. c #74AD8D",
"r. c #2A3C68",
"t. c #2E767A",
"y. c #529D89",
"u. c #526C93",
"i. c #6AA387",
"p. c #7EB38F",
"a. c #7EAD81",
"s. c #CBDFE5",
"d. c #5EA389",
"f. c #A9C3A3",
"g. c #B9D1B3",
"h. c #263066",
"j. c #91AF89",
"k. c #76AB85",
"l. c #365A2E",
"z. c #76A385",
"x. c #3A5881",
"c. c #EF7E9F",
"v. c #6889A9",
"b. c #6889A3",
"n. c #2A4C6E",
"m. c #549F87",
"M. c #6AA789",
"N. c #ABCBA1",
"B. c #489B85",
"V. c #263266",
"C. c #607093",
"Z. c #3E8B87",
"A. c #263C6A",
"S. c #34817E",
"D. c #546C93",
"F. c #81A1B5",
"G. c #426087",
"H. c #A5BF8F",
"J. c #326E76",
"K. c #4A709F",
"L. c #70A789",
"P. c #87B593",
"I. c #74AB89",
"U. c #A9C99F",
"Y. c #B9D1AB",
"T. c #A7C1CD",
"R. c #7A8F81",
"E. c #446289",
"W. c #9FAD76",
"Q. c #7287A1",
"!. c #8DB183",
"~. c #898BA5",
"^. c #66A58B",
"/. c #48858F",
"(. c #329B87",
"). c #2E5874",
"_. c #93B193",
"`. c #364A78",
"'. c #326A78",
"]. c #6C936E",
"[. c #3A8B81",
"{. c #BBD5DF",
"}. c #449B89",
"|. c #427685",
" X c #367C83",
".X c #587699",
"XX c #546E91",
"oX c #449F87",
"OX c #766C93",
"+X c #2A306A",
"@X c #68A585",
"#X c #306478",
"$X c #445281",
"%X c #6EA787",
"&X c #A5C9AB",
"*X c #C5D5D9",
"=X c #74A789",
"-X c #446A85",
";X c #4C6289",
":X c #343438",
">X c #5E835C",
",X c #5C7A91",
"<X c #D3D5D9",
"1X c #4A5283",
"2X c #93A76A",
"3X c #365C85",
"4X c #7A8F8B",
"5X c #9FC5AD",
"6X c #8DA3B5",
"7X c #87B59B",
"8X c #D37A9B",
"9X c #76AB87",
"0X c #7CAD93",
"qX c #2A4281",
"wX c #36767A",
"eX c #648B66",
"rX c #9DC7C5",
"tX c #9BB587",
"yX c #CF87A1",
"uX c #469D87",
"iX c #526E9B",
"pX c #4C8789",
"aX c #5A7E56",
"sX c #52A18D",
"dX c #7495AB",
"fX c #3E7C8B",
"gX c #60A58D",
"hX c #628564",
"jX c #998F26",
"kX c #709B7E",
"lX c #8BB99B",
"zX c #9BB99D",
"xX c #242E64",
"cX c #4E8191",
"vX c #405E85",
"bX c #85AF89",
"nX c #E58DA9",
"mX c #2A3E70",
"MX c #446E91",
"NX c #6A8385",
"BX c #509D85",
"VX c #97B389",
"CX c #BBD7B7",
"ZX c #CDCD44",
"AX c #748F99",
"SX c #3A5E30",
"DX c #F77C9D",
"FX c #58A391",
"GX c #3C8F85",
"HX c #7083A1",
"JX c #38507C",
"KX c #B5CFA3",
"LX c #8399AF",
"PX c #97BF9F",
"IX c #429587",
"UX c #44A38B",
/* pixels */
">   .     * = @ ; = *     . $ > t = = = = =   t , X.p = $ > $ $ = = = = = = . > ",
"$ @   = = & > uXuX> > O . . $ $ % % % % % = = % h ^.e.0.  = % % % % % % % % = . ",
"  @ $     > $ &     O & & % % @ & % = = = % ; b n KX!.x X.% = = = = = = = = % = ",
"= % & @ $ & . t   . = % t & & > = % = % = y h L.5X_.l.kXsX% = = % % % % = % = = ",
"= % % @ $ = * * * = % * % > uX= % = % % = % = q =.f.aX@.} % % = = = = = = % = % ",
"* * % ; @ t   = % # % % % & $ % = = = = % = % h I.U.PXK BX% = = % % % % % = % = ",
"= = # . uX$   = # % = t t   & . % = = % = = % % gX$.m.k y * = % = ( = = = % = % ",
"* * % t ! $   = * = t     = % . * % % = = = = = $ ; % . = * % = ,.`  .%Xd.= % = ",
"* * % & @ O O t   . = % % % = = . . = = = % % % $ & % =   * % ;  .eXj.N.i.| % * ",
"% % % & $ .   . % % = . = % = = # . . % % = = ; N   $ $ $ $ & ; =XSXhX&X@X> % % ",
"; ; & $ $ % * * * * *   = = % = = = t % y.} C p.` 7.% = . & & 7.k.8.g.7X<.> O o ",
"; $ $ uX> = % = . . = = % % = % = =   ( ~ n CXH.a.&.% % % t $ ( ^.P.w.0XM.! & & ",
"% % . . $ > $ = % = % % = = % = % = % & q lXzXO.].FXt ; ; $ O y p p B.;.4 O % % ",
"* % . = % t > & % = % = = % = = % = = % R w.Y.>Xz.b > >   % + * % %   % = ;   * ",
"* # *     = = & & % = = % % = = = = = % *.9XF 1.C c $ = %     = * * t & = ; & = ",
"= % * =   &   = $ = % = = = = = = % % . . BXj 4 > . O & *   = # * * =   & $   = ",
". =         O = $ t % = % % % % % = = .     # = #   . $ $ . = * =     = O $ =   ",
"*   > @ @ O . . $ & # * * % & > $ @ = # = = *     .     & $   =   = = = O uX= = ",
"  @ @ . = $ $ $ $ % = = # & > O t ; & % * = . * =   = . . t & = = & & & @ > ( . ",
"@ $ O = * = & > $ % # % % > (   % = $ = % # * * * *   = = % t $ $ $ $ $ $ = ; $ ",
"& % t % *   = = > $ =   $ > t = = % X.$ o + + + + = = = = = % . &     & & = %   ",
"% * . = =     .   > ( > $   % % = % + 5.|.5 5 5 5 IX@ ; . % = % % .   * $ = % $ ",
"% % . . = * * = % % = % % = % % % 2 Z.MXiX.Xu.D.:.fXB O $ = % = = % % = $ * % $ ",
"& #   % # % # = = = % % = % = + + g 3XNXR.9.D E ~.OXpXZ $ % = = = = % = $   =   ",
"uX$ % % * = * = = % = = % . B #.W r.qX2XjX:XE b.8XDXQ J ; % % % = = % = $   . % ",
"$ $ & % # % # = = % = % % % W v 0 V.+.K.W.ZXv.D yXc.Q J X.= = = % % = & $ * = & ",
". . $ & .       = % = % + S.A.x.v xXJX..,XAX6.) *XnX4XJ X.$ > $ & $ > O t . & & ",
"  . $ $ . . . . . = % + wXi e vXa `.E.2.-.{.) G ' <XQ. X+ > = = $ ! & * & & > = ",
"% # % $ $ & & & > > % 2 '.+XG.i a e %.dXLXC.o.U U F./.GX$ > = * . $ @ $ $ > t . ",
"= * =   $ $ $ &   > = . [.#Xi a a e ..XXHX6XS S ' ;Xt.] ; = % y % @ $ * = $ O % ",
"* = . . = y z ; u $ = % A P >.0 0 q.3.mX$XT.G G o.1XJ.UX% = % u p y X = = & uX* ",
"        % I f 8 R t ; & + P s s s n./ / ).cXrXrX{ -Xg 1 % = y 7 8 f K =   . > $ ",
"= = = % 4 VXY bX4.% y . O X Z O o A @ O + . r r r : : = % m % ; T Y tX4.y   = $ ",
"$ $ t * * I 9 9 L T i.V O > ; ; = % % = % = = = = = = y u 8 f L d f K % % = * $ ",
"O t & & &   X 6 j 7 7 ;.& & = % * % % = % = = = = % = % 7.V 7 B.m 6 6 % = % % $ ",
". . . $ $ $ & & X 6 m . $   % % % % % = % = = = = = % = % 6 6 y = = = % = ; $ & ",
"# & $ $ $ & @ $ O @ @ @ $ @ $ $ . = = = = = = = = % = % = = = = = = = % . > = % ",
"$ $ . =   O O @ @ > &       & O > & % = % = = = = % = % = t = % = % = # = & = $ ",
"& =     = t = > & = = = = = t . & & % = % = = = = = = = % > = % * # # * % . uX> ",
"=         O = > & =         =   $ & % = % = = = = = = = % $ $ % * % = =   * $ > "
};
