/* XPM */
static char *result[] = {
/* columns rows colors chars-per-pixel */
"40 40 256 2 ",
"   c #3E9987",
".  c #3E9B87",
"X  c #3C9987",
"o  c #429D87",
"O  c #3C9785",
"+  c #449D87",
"@  c #3E9785",
"#  c #3C9787",
"$  c #429B87",
"%  c #409B87",
"&  c #409987",
"*  c #3E9985",
"=  c #3C9F8D",
"-  c #3C9D8B",
";  c #3E9787",
":  c #449D89",
">  c #409B8B",
",  c #449B87",
"<  c #3C9985",
"1  c #60261C",
"2  c #469D89",
"3  c #58604F",
"4  c #429D89",
"5  c #149338",
"6  c #429B8B",
"7  c #3A9F8B",
"8  c #2E8363",
"9  c #129334",
"0  c #3A9785",
"q  c #3A9787",
"w  c #603023",
"e  c #40A28D",
"r  c #585D4D",
"t  c #40998B",
"y  c #522111",
"u  c #522717",
"i  c #119134",
"p  c #77AC89",
"a  c #2B9562",
"s  c #5A3526",
"d  c #502010",
"f  c #409B89",
"g  c #2E9765",
"h  c #5F2E22",
"j  c #0F8338",
"k  c #409D87",
"l  c #389785",
"z  c #4C5C4C",
"x  c #5E362A",
"c  c #3DA08D",
"v  c #169138",
"b  c #149538",
"n  c #105824",
"m  c #379787",
"M  c #569F87",
"N  c #126330",
"B  c #3A9D8C",
"V  c #057530",
"C  c #3A9882",
"Z  c #2A8F68",
"A  c #4A7060",
"S  c #60A387",
"D  c #526253",
"F  c #487060",
"G  c #4A6C5B",
"H  c #23754F",
"J  c #4A6E60",
"K  c #612B20",
"L  c #26945B",
"P  c #429987",
"I  c #265026",
"U  c #4C7362",
"Y  c #4C5F4C",
"T  c #3E9989",
"R  c #469F89",
"E  c #3F9582",
"W  c #4A9B86",
"Q  c #3EA18D",
"!  c #3E9B89",
"~  c #3AA290",
"^  c #467A68",
"/  c #461F15",
"(  c #4A7262",
")  c #509E88",
"_  c #3E9F8B",
"`  c #60281C",
"'  c #2B8260",
"]  c #74A987",
"[  c #2A8D68",
"{  c #459987",
"}  c #4E1E10",
"|  c #1E672B",
" . c #4F2214",
".. c #542818",
"X. c #3C9F8B",
"o. c #5CA187",
"O. c #4B9D87",
"+. c #6CA587",
"@. c #408D7A",
"#. c #3A9781",
"$. c #309869",
"%. c #1A7731",
"&. c #7AAB87",
"*. c #489F89",
"=. c #369585",
"-. c #5AA187",
";. c #067831",
":. c #0F8539",
">. c #542416",
",. c #3A986E",
"<. c #469D87",
"1. c #6FA78E",
"2. c #603226",
"3. c #ABB989",
"4. c #3E391D",
"5. c #4E9D87",
"6. c #128C38",
"7. c #456D5B",
"8. c #4A8471",
"9. c #127535",
"0. c #215B28",
"q. c #59A28E",
"w. c #459B88",
"e. c #409789",
"r. c #5B2E21",
"t. c #429985",
"y. c #74AA8C",
"u. c #38977A",
"i. c #1A7D33",
"p. c #526656",
"a. c #3C9789",
"s. c #529F8B",
"d. c #502919",
"f. c #3E9B8C",
"g. c #3F998C",
"h. c #497E6B",
"j. c #99B488",
"k. c #596250",
"l. c #409985",
"z. c #179339",
"x. c #448D7A",
"c. c #16933A",
"v. c #3A937E",
"b. c #4A9B89",
"n. c #429D8B",
"m. c #349781",
"M. c #562414",
"N. c #87AF83",
"B. c #6AA587",
"V. c #521E0E",
"C. c #562818",
"Z. c #52503E",
"A. c #5A9F89",
"S. c #406C5E",
"D. c #428978",
"F. c #38937C",
"G. c #489B87",
"H. c #147430",
"J. c #5C3024",
"K. c #488974",
"L. c #B7CFA5",
"P. c #78A987",
"I. c #109330",
"U. c #523C2A",
"Y. c #088F24",
"T. c #42917E",
"R. c #0A7032",
"E. c #4C5C4A",
"W. c #72A787",
"Q. c #5C3A2C",
"!. c #2C9162",
"~. c #489F8D",
"^. c #54301E",
"/. c #2C2E18",
"(. c #85AF89",
"). c #3E6A5A",
"_. c #0E8D30",
"`. c #427A6C",
"'. c #545A48",
"]. c #64261A",
"[. c #505844",
"{. c #83AD87",
"}. c #603428",
"|. c #4C6242",
" X c #5A3426",
".X c #569F83",
"XX c #3A9F8D",
"oX c #3E9F91",
"OX c #349B6E",
"+X c #36120C",
"@X c #3A977E",
"#X c #0C8532",
"$X c #87AD8D",
"%X c #125C2A",
"&X c #2A8760",
"*X c #24873E",
"=X c #9BB79B",
"-X c #583424",
";X c #2A562C",
":X c #56604E",
">X c #89B58F",
",X c #366852",
"<X c #30956A",
"1X c #38341A",
"2X c #36160C",
"3X c #505C48",
"4X c #125424",
"5X c #3A9987",
"6X c #5E835A",
"7X c #14682A",
"8X c #284E26",
"9X c #386036",
"0X c #488378",
"qX c #5C281C",
"wX c #709B7C",
"eX c #5CA591",
"rX c #008130",
"tX c #1E6E42",
"yX c #10622C",
"uX c #0E541C",
"iX c #524432",
"pX c #78AF91",
"aX c #429785",
"sX c #3C9D4C",
"dX c #2E6E28",
"fX c #87B593",
"gX c #38A593",
"hX c #3C977C",
"jX c #449B85",
"kX c #486454",
"lX c #243C1A",
"zX c #A9C9AF",
"xX c #482418",
"cX c #18933E",
"vX c #108F30",
"bX c #409B8D",
"nX c #2E2814",
"mX c #14973A",
"MX c #2A9968",
"NX c #623A2C",
"BX c #522E1C",
"VX c #268F5A",
"CX c #369F83",
"ZX c #83B395",
"AX c #146636",
"SX c #208D5E",
"DX c #483C1E",
"FX c #6A9166",
"GX c #32704C",
"HX c #46523E",
"JX c #42A18D",
"KX c #328B70",
"LX c #3CA391",
"PX c #565646",
"IX c #6AA78D",
"UX c #BDD3AD",
/* pixels */
",   *     ; @ + P @ ;     * $ , % x.h.x.O @   * * O @ ; $ w.$ $ @ @ @ @ @ @ * , ",
"$ +   @ @ & , <.<., , % * * $ jX7 p.].p.gXO @ @ * . % , & @ O O O O O O O O @ * ",
"  + $     , $ &     % & l.O O jX_ D ` PXh.D.X @ @ & $ @ O O @ @ @ @ @ @ @ @ O @ ",
"@ O & + $ & * *   * @ O l.l.& jX_ D h x 1 G B @ @ $ * O @ @ @ @ 0 O O O @ @ @ @ ",
"@ O O + $ @ ; ; ; @ O ; O , <.@ B D h Q.2.A - O % & O @ @ @ O O W { aXjXO O @ O ",
"; ; O P + l.  @ O # O O O & $ O = E.d s w J 7 @ $ @ O O @ @ 0 ) p pXfX] s.O @ @ ",
"@ @ # * <.$   @ # O @ * *   & @ = Y y s 2.A 7 @ $ * * ; O ; 0 q.wX6XUX>XA.O @ @ ",
"; ; O l.*.$   @ ; @ *     @ O @ = Y y s w J 7 @ $   * * @ ; 0 eXFX9X=XZX.XO @ @ ",
"; ; O & + % % *   * @ O O O @ @ c Y y s 2.A 7 @ , & O @   @ O o.N.L.zXy.-.0 @ ; ",
"O O O & $ *   * O O @ * @ O @ @ = z d -Xh J - @ , $ $ $ $ $ * 5.IXp 1.1.) X O O ",
"P P & $ $ O ; ; ; ; ;   @ @ O @ = z y ^.>.7.e t.& O @ @ * & $ O l.@ t.w.$ & $ o ",
"P $ $ <.w.@ O @ * * @ @ O O @ @ - z y BX .G JXt.$ & @ O O l.$ @ @ ;     P + $ & ",
"O O * * $ , $ @ O @ O O @ @ O @ O x.K.Z.V.7.LX@ @   , & P $ % ;   * & @ & $ O O ",
"; O * @ O l., & O @ O @ @ O @ O @ O ~ 3XV.kXT.E # @ <.,   O . ; @ * * *   P   ; ",
"; # ;     @ @ & l.O @ @ O O @ @ @ @ ! [.y d...h.X.l.$ O O     @ # @   * @ P & @ ",
"@ O ; @   &   @ $ @ O @ @ @ @ @ @ O - '.M.U.iX8._ l.% l.;   @ # ; ; @   & $   @ ",
"* @         % @ $ l.O @ O O O O O @ - k.` U Q @ @   * $ $ * @ ; @     @ % $ @   ",
";   , + + % * * $ & # ; ; O l., $ <.- k.K ( - @   @     & $   @   @ @ @ % <.@ @ ",
"  + + * @ $ $ $ $ O @ @ # l., % * t._ 3 ` F X.@ @   @ * * l.& @ @ & & l.+ , t.* ",
"+ $ % @ ; @ & , $ O # O O , t.  O @ JX3 1 F X.@       @ @ O l.$ $ $ $ $ $ @ P $ ",
"& O * O ;   @ @ , $ @   $ , * @ @ O _ k.1 F - @ @ @ @ @ @ @ O * &     & & @ O   ",
"O ; * @ @     *   , t., $   O O @ @ - 3 1 U e @ & $ $ $ * O @ O O *   ; $ @ O $ ",
"O O * * @ ; ; @ O O @ O O O O @ @ @ - 3 1 U JXjX$ & & & $ @ O @ @ O O @ $ ; O $ ",
"& #   O # O # @ @ @ O O @ T   O @ @ - 3 1 ( c @ @   ;   $ O @ @ @ @ O @ $   @   ",
"<.$ O O ; @ ; @ @ O O T KXtX8   O @ - 3 K G aXE @   # ; l.O O O @ @ O @ $   * O ",
"$ $ l.O # O # @ @ O O > 8 uXH T O @ - 3 w NXNX8.= @ * @ @ @ @ @ O O @ & $ ; @ & ",
"* * $ & *       @ O O f 8 n H bXO @ - 3 h x 2.^ m.@ & @ O $ , $ & $ , % * * & & ",
"  * $ $ * * * * * @ O f 8 n H C #.@ - 3 w x }.;XAXv.% O O , @ @ $ *.& ; & & , @ ",
"O # O $ $ & & & , , O f 8 n 9.9 a e.- r qXJ.J.I N F.  O & + @ ; * $ + $ $ , l.* ",
"@ ; @   $ $ $ &   , O > 8 %X9.9 !.g.CX|.>.d...I N E g.l.P @ O 0 O + $ ; @ $ % O ",
"; @ * * @ 0 m t.5.$ O t [ ;.:.v MX0X*Xv 4. ...I N !.OX* O O 0 5.{ 0 X @ @ & <.; ",
"        O o.P.+.-.l.l.n.[ ;.:.9 VXHXdX5 /./ ..8XyX_.c.@X; t a.M +.P.S @   * , $ ",
"@ @ @ O G.j.3.(.O.O l 6 Z ;.j mX| lX%.v 1X ...0.R.6.cX#.u.L <XP &.3.j.W 0   @ $ ",
"$ $ l.; ; o.&.p {.&.B.q.[ ;.j mX%.0.i.v DX>.C.| rXvXz.C ,.Y.sX$XW.P.S O O @ ; $ ",
"% l.l.& &   X l G.M M s.[ V j 5 c.5 z.5 4./ xXGXSXL a O hXL ,.b.=.l l O @ O O $ ",
"* * * $ $ $ & & X l =.t <X#X6.5 c.v i.H.nX+X2X`.oXe.e.@ O e.# 0 @ @ @ O @ P $ l.",
"# & $ $ $ & + $ % + jX~.$.I.5 i i 9 7X4X,XS.).@.< O O O O O O @ O @ @ O * , @ O ",
"$ $ * @   % % + + ,   f u.a g g g g &X' C c - X @ O O O @ l.@ O @ O @ # @ & @ $ ",
"& @     @ l.@ , & @ @ @   t 6 6 6 6 T > @ O @ @ O @ @ @ O , @ O ; # # ; O * <., ",
"@         % @ , & @     @ @ @ * $ l.O O O @ O O O @ @ @ O $ $ O ; O @ @   ; $ , "
};
