/* XPM */
static char *result[] = {
/* columns rows colors chars-per-pixel */
"40 40 256 2 ",
"   c #3E9987",
".  c #3C9987",
"X  c #3E9B87",
"o  c #3E9985",
"O  c #3C9785",
"+  c #449D87",
"@  c #3E9785",
"#  c #3C9787",
"$  c #429B87",
"%  c #409B87",
"&  c #429D87",
"*  c #409987",
"=  c #3E9787",
"-  c #3C9D8B",
";  c #563722",
":  c #3C9B8A",
">  c #409B8C",
",  c #533822",
"<  c #449B87",
"1  c #602F22",
"2  c #428775",
"3  c #614028",
"4  c #449D89",
"5  c #593725",
"6  c #533622",
"7  c #3C9F8D",
"8  c #399786",
"9  c #429D89",
"0  c #379686",
"q  c #139237",
"w  c #513520",
"e  c #3D9D8A",
"r  c #5D3628",
"t  c #559F87",
"y  c #5D3326",
"u  c #469D89",
"i  c #469B87",
"p  c #169238",
"a  c #5F3327",
"s  c #3A9F8B",
"d  c #585A4A",
"f  c #543A24",
"g  c #64422A",
"h  c #428672",
"j  c #4F9F8A",
"k  c #419A89",
"l  c #593B24",
"z  c #3C9985",
"x  c #3EA08D",
"c  c #2A8E68",
"v  c #512717",
"b  c #2B9462",
"n  c #7C5036",
"m  c #593423",
"M  c #704B30",
"N  c #429B8B",
"B  c #5D3024",
"V  c #6C482E",
"C  c #5A3B28",
"Z  c #511F0F",
"A  c #8C5E3E",
"S  c #5E2D21",
"D  c #45A08B",
"F  c #553521",
"G  c #545E48",
"H  c #2D8262",
"J  c #622E22",
"K  c #58614F",
"L  c #3D9583",
"P  c #149539",
"I  c #409985",
"U  c #7D5436",
"Y  c #A06C47",
"T  c #3A9D8C",
"R  c #119232",
"E  c #502213",
"W  c #5B4335",
"Q  c #5CA187",
"!  c #61251A",
"~  c #724C32",
"^  c #274F26",
"/  c #61A487",
"(  c #3D9F8B",
")  c #56301C",
"_  c #72A88B",
"`  c #389782",
"'  c #115724",
"]  c #126432",
"[  c #0F8438",
"{  c #5F291E",
"}  c #39967C",
"|  c #40998B",
" . c #418B77",
".. c #4A6E60",
"X. c #5A5C4C",
"o. c #552917",
"O. c #429F8D",
"+. c #2E9765",
"@. c #3FA28E",
"#. c #68A589",
"$. c #966442",
"%. c #536353",
"&. c #057530",
"*. c #543824",
"=. c #86593A",
"-. c #4C8470",
";. c #476D5B",
":. c #5C2C20",
">. c #4A9C88",
",. c #85AE8A",
"<. c #78AB89",
"1. c #177732",
"2. c #5E3C26",
"3. c #563C26",
"4. c #129434",
"5. c #489F89",
"6. c #2C8663",
"7. c #20734A",
"8. c #5B281B",
"9. c #446D5B",
"0. c #107332",
"q. c #26945B",
"w. c #428E7A",
"e. c #593022",
"r. c #467967",
"t. c #535A48",
"y. c #4C5C4A",
"u. c #4A7060",
"i. c #59A28B",
"p. c #462016",
"a. c #603728",
"s. c #815739",
"d. c #5D3E31",
"f. c #3BA18E",
"g. c #3A9982",
"h. c #409D87",
"j. c #54614D",
"k. c #595847",
"l. c #77A987",
"z. c #30966A",
"x. c #56321C",
"c. c #553E2A",
"v. c #4E9D87",
"b. c #9D6A46",
"n. c #8DB891",
"m. c #696C51",
"M. c #12652B",
"N. c #0B8E2A",
"B. c #4C6C5B",
"V. c #2D9968",
"C. c #11883A",
"Z. c #9C6844",
"A. c #3E391D",
"S. c #8F6040",
"D. c #469D87",
"F. c #4C5E4C",
"G. c #542E1C",
"H. c #72986D",
"J. c #7EAD89",
"K. c #38A593",
"L. c #895C3C",
"P. c #7AAB87",
"I. c #542416",
"U. c #5EA28D",
"Y. c #54A18B",
"T. c #48A18F",
"R. c #409789",
"E. c #584835",
"W. c #429885",
"Q. c #067831",
"!. c #85B895",
"~. c #ABB989",
"^. c #75AD8D",
"/. c #4C6857",
"(. c #379A6E",
"). c #238E5C",
"_. c #9BC2A8",
"`. c #1A7D33",
"'. c #6CA587",
"]. c #774C34",
"[. c #7BB192",
"{. c #488C78",
"}. c #295429",
"|. c #3E9989",
" X c #409785",
".X c #118E33",
"XX c #1E672B",
"oX c #526656",
"OX c #BBD4B1",
"+X c #0C8532",
"@X c #4C3220",
"#X c #16933A",
"$X c #729576",
"%X c #0E541C",
"&X c #501A0C",
"*X c #38937C",
"=X c #99BF9F",
"-X c #4E604C",
";X c #9BB587",
":X c #68462C",
">X c #3E6A5A",
",X c #42917E",
"<X c #936040",
"1X c #125C2A",
"2X c #2C2E18",
"3X c #587E52",
"4X c #4C2014",
"5X c #6CA789",
"6X c #525440",
"7X c #4A7E6C",
"8X c #1E5C26",
"9X c #008130",
"0X c #B3CBA3",
"qX c #3C977C",
"wX c #46523E",
"eX c #36120C",
"rX c #9DB99D",
"tX c #366852",
"yX c #525E4C",
"uX c #243C1A",
"iX c #745C3E",
"pX c #408F7C",
"aX c #36160C",
"sX c #526852",
"dX c #56301A",
"fX c #97B389",
"gX c #267652",
"hX c #A3BF93",
"jX c #62765A",
"kX c #87B391",
"lX c #365C36",
"zX c #3A9987",
"xX c #488378",
"cX c #564634",
"vX c #328D72",
"bX c #4C6242",
"nX c #3C9D4C",
"mX c #2E6E28",
"MX c #2E2814",
"NX c #709F83",
"BX c #567260",
"VX c #527A64",
"CX c #99BF93",
"ZX c #24873E",
"AX c #5A604C",
"SX c #245A2A",
"DX c #7A7856",
"FX c #427A6C",
"GX c #483C1E",
"HX c #3A976E",
"JX c #38341A",
"KX c #32704C",
"LX c #369F83",
"PX c #97BFA1",
"IX c #7C956E",
"UX c #564630",
/* pixels */
"<   o     = @ + $ @ =     o $ < % w.7X{.O @   o o O @ = $ < $ $ @ @ @ @ @ @ o < ",
"$ +   @ @ * < D.D.< < % o o $ < - oX! oXK.O @ @ o X % < * @ O O O O O O O O @ o ",
"  + $     < $ * o z   $ I O O < x %.! k.r. .|.@ @ * $ @ O O @ @ @ @ @ @ @ @ O @ ",
"@ O * + $ *   o < j i 0 $ I * < - %.1 r { B.T @ @ $ o O @ @ O O O @ O @ @ O @ @ ",
"@ O O + $ @   O t J.<.Y.O < D.@ T %.:.C a u.- L % * O @ @ O O @ O @ @ @ O @ O O ",
"= = O $ + I # W.n.hX3XNXU.I $ O 7 y.Z r 1 ..s @ $ @ O O @ @ @ O @ @ @ @ @ @ O @ ",
"@ @ # o 5.% < #._.rXlX$X^.< * @ 7 F.I.5 a u.s @ $ o o = O @ @ O @ @ @ O @ @ O @ ",
"= = O I 5.% $ 5X_ =XOXkXt @ O @ 7 F.Z 5 1 ..s @ $   o o @ # @ @ O @ O @ @ O @ @ ",
"= = O * + % % D./ <.n.5X= O @ @ x -XE r a u.s @ < * O @   O O @ @ O @ @ O @ @ = ",
"O O O * $ o     @ j / i O @ O @ 7 F.Z m 1 ..- @ < $ $ $ $ $ * O @ @ @ @ o   O O ",
"$ $ * $ $ O = = = O # = @ @ @ @ 7 y.Z G.I.;.@.$ * O @ @ o * $ @ @ O O z $ * $ & ",
"$ $ $ D.< @ O @ o @ @ @ L L @ L - yXZ G.E ;.O.W.$ I @ O O I $ O O @ t i.$ < $ * ",
"O O o o $ < $ @ O e e e e e e e ( ,X{.6X&X;.K.% e ( D O.O.D ( u i.[.CX_ t % O O ",
"= O o @ O I < * L sXG G G d X.X.d X.K W :.E.AXX.d d AXG G G G m.DXIXOXkX/ %   = ",
"= # =     @ @ % W.C o.x.) { 1 1 J J 1 B a B S J J J a.m x.x.x.2.iX^ $X_.'.t   @ ",
"@ O = @   *   = $ r.;.c.; 5 *.M b.Y M F 5 F g A b.S.$.S.; *.3.m m.H.0XPX_ j O   ",
"o @         % @ $ x  XUXF ; , M Y V C w ; 6 l g g <XA g f ; 3.G.jX!.J.Q j $ @   ",
"=   < + + % o   $ k.W 3.; l f M Y U M L.5 ~ ~ U :XA =.@Xl f C 1 B.T.i o X D.@ @ ",
"  + + o @ $ $ & $ d.S ; ; ; 6 V Z.U M A ].U ~ Z.U =.s.w ; 6 r { /.@.W.* D.< $ o ",
"+ $ % @ = @ * $ < cXF *.*.; , V A g l 3 $.].l $.n U n e.y y r a d.W BXO.$ @ $ $ ",
"* O o O =   @ = < UX) *.; ; , M Y Y U L.3 S.A =.].s.n e.a a a a B ! %.@.W.@ O   ",
"O = o @ @   o   $ -.VXd.y r r 2.:X:X3 3 ; 3 g 3 2.3 d.5 5 5 C m yX-.{.. < @ O $ ",
"O O o o @ = = @ O -  XW B y r *.w w f 6 ; 6 *.*., 6 3.f *.*.3.dX;.K.@ @ $ = O $ ",
"* #   O # O # @ @ @ L 2 2 2 2 h h h  .k.{ /.pX2 2 2 2 2 2 h 2 h pX@ @ @ $   @   ",
"D.$ O O = @ = @ @ O O > vX7.6.> . . f.K { ..* @ e e : e 9 : : : . @ O @ $   o O ",
"$ $ I O # O # @ @ O O k H %X7.|.L L : K a a.a.-.-  X@ @ @ @ @ @ O O @ * $ = @ * ",
"o o $ * o       @ O O k H ' gXN O @ e K 1 r a r.` @ * @ O $ < $ * $ < % o o * * ",
"  o $ $ o o o o o @ O | 6.' gXg.L @ e K 1 a.a.}.] *X% O O < @ @ $ 5.* = * * < @ ",
"O # O $ $ * * * < < O k H ' 0.4.b R.- X.8.y B }.] *X* O * + @ = o $ + $ $ < I o ",
"@ = @   $ $ $ *   < O > 6.1X1.4.b > LXbXv v v ^ ] L | I $ @ O 8 O + $ = @ $ % O ",
"= @ o o @ 8 0 W.v.$ O | c &.[ q V.xXZXp A.E o.^ ] b (.o O O O v.W.8 . @ @ * D.= ",
"        O Q <.'.Q I I N c Q.[ q ).wXmX#X2Xp.o.^ M..X#X} = | # t '.l./ @   o < $ ",
"@ @ @ O i fX~.,.>.O 8 N c Q.[ P XXuX1.p JX4Xv SX0.C.#XO } q.z.k P.~.;X>.O   @ $ ",
"$ $ I = = Q <.l.,.P.'.i.c Q.[ P 1.8X`.q GXI.o.XX9X.Xp O HXN.nX,.l.l./ O O @ = $ ",
"% I I * *   . 8 i t t j c &.[ p #XP p P A.p.p.KX).q.b O qXq.HX>.0 0 L O @ O O $ ",
"o o o $ $ $ * * . 0 0 | z.+XC.p #Xp `.0.MXaXaXFXx R.R.@ O R.# O @ @ @ O @ $ $ I ",
"# * $ $ $ * + $ % + < T.z.R q R q 4.M.' tX9.>XpX. O O O O O O @ O @ @ O o < @ O ",
"$ $ o @   % % + + <   * } b +.+.+.+.6.H g.x - . @ O O O @ I @ O @ O @ # @ * @ $ ",
"* @     @ I @ < * @ @ @   | N N N N |.> @ L @ @ O @ @ @ O < @ O = # # = O o D.< ",
"@         % @ < * @     @ @ @ o $ I O O O @ O O O @ @ @ O $ $ O = O @ @   = $ < "
};
