/* XPM */
static char *result[] = {
/* columns rows colors chars-per-pixel */
"40 40 256 2 ",
"   c #3E9987",
".  c #3E9985",
"X  c #409987",
"o  c #429D87",
"O  c #3C9785",
"+  c #449D87",
"@  c #3E9B87",
"#  c #3C9787",
"$  c #409B87",
"%  c #429B87",
"&  c #3C9987",
"*  c #3E9787",
"=  c #DFBD28",
"-  c #3E9785",
";  c #389789",
":  c #E1BD26",
">  c #E5BF21",
",  c #449D89",
"<  c #E1BF27",
"1  c #E3BF22",
"2  c #369585",
"3  c #DFBD2A",
"4  c #E1BD23",
"5  c #E3C024",
"6  c #BEA326",
"7  c #469D89",
"8  c #BFA527",
"9  c #429D89",
"0  c #E3BD22",
"q  c #C1A522",
"w  c #389785",
"e  c #509979",
"r  c #DDBD2C",
"t  c #35978A",
"y  c #57A087",
"u  c #B9A124",
"i  c #C0A31E",
"p  c #399789",
"a  c #409D88",
"s  c #BDA323",
"d  c #35998E",
"f  c #BCA11E",
"g  c #D0B228",
"h  c #409985",
"j  c #E7C223",
"k  c #3E9B8A",
"l  c #C1A625",
"z  c #459F89",
"x  c #C8A518",
"c  c #DDBD2A",
"v  c #369583",
"b  c #569D78",
"n  c #389585",
"m  c #BBA124",
"M  c #39998C",
"N  c #D2B224",
"B  c #DFBD26",
"V  c #D3B424",
"C  c #5C9B6F",
"Z  c #E3C026",
"A  c #C6A821",
"S  c #E1BF2A",
"D  c #D7B420",
"F  c #469C87",
"G  c #35998B",
"H  c #D9BA28",
"J  c #579C71",
"K  c #E7C020",
"L  c #449B87",
"P  c #609A6C",
"I  c #90BA9E",
"U  c #DEBB26",
"Y  c #CBAD24",
"T  c #3B9C8D",
"R  c #769D5F",
"E  c #3A9988",
"W  c #D9BB2C",
"Q  c #DFBF2B",
"!  c #449A86",
"~  c #DFBB22",
"^  c #B49611",
"/  c #9CA13D",
"(  c #BF9E18",
")  c #C4A41E",
"_  c #409B89",
"`  c #E5C123",
"'  c #4C9E88",
"]  c #DBBB2C",
"[  c #C4A825",
"{  c #3A9787",
"}  c #499983",
"|  c #4B9C86",
" . c #C4A217",
".. c #A5A035",
"X. c #CCB02A",
"o. c #AB911C",
"O. c #38998B",
"+. c #78AB89",
"@. c #69A486",
"#. c #D0AA18",
"$. c #5CA38B",
"%. c #CDAC1E",
"&. c #BBA328",
"*. c #DABB2C",
"=. c #C6A41C",
"-. c #B99914",
";. c #D2B020",
":. c #389886",
">. c #DCBB2D",
",. c #D5B529",
"<. c #938F36",
"1. c #AB8F17",
"2. c #3C9985",
"3. c #B39C3C",
"4. c #E5C12A",
"5. c #C9A31A",
"6. c #B79816",
"7. c #55A18C",
"8. c #5EA38D",
"9. c #C7A724",
"0. c #BBA122",
"q. c #649A6A",
"w. c #D8B22A",
"e. c #5AA58D",
"r. c #369687",
"t. c #C7A81D",
"y. c #E1BB24",
"u. c #5CA287",
"i. c #B8A129",
"p. c #DBB924",
"a. c #D7B524",
"s. c #C1A420",
"d. c #DDBB24",
"f. c #D9B826",
"g. c #7AA987",
"h. c #A9B989",
"j. c #669C6B",
"k. c #C9A920",
"l. c #BFA322",
"z. c #AC9B3F",
"x. c #B8A22C",
"c. c #979F48",
"v. c #C9A91E",
"b. c #959138",
"n. c #B69713",
"m. c #BFA11C",
"M. c #B19214",
"N. c #3C998A",
"B. c #DBB229",
"V. c #429987",
"C. c #4F9A76",
"Z. c #A3A13E",
"A. c #85AE88",
"S. c #719C5B",
"D. c #AFC5A5",
"F. c #7E9F5B",
"G. c #9F9536",
"H. c #429B85",
"J. c #A0A03C",
"K. c #4E997C",
"L. c #5D9B72",
"P. c #509F89",
"I. c #C3A724",
"U. c #ADC5A5",
"Y. c #4E9E7D",
"T. c #CCA414",
"R. c #DFBF28",
"E. c #BFA522",
"W. c #7FAB87",
"Q. c #489F88",
"!. c #549D7C",
"~. c #71A887",
"^. c #96B999",
"/. c #E47515",
"(. c #DDB720",
"). c #CDA91C",
"_. c #569974",
"`. c #D5B11E",
"'. c #A59D38",
"]. c #549F87",
"[. c #C9AB22",
"{. c #BB9710",
"}. c #9BC3A9",
"|. c #B75A1A",
" X c #34978D",
".X c #C56212",
"XX c #329791",
"oX c #60A387",
"OX c #D5BB32",
"+X c #6A956E",
"@X c #8B8B26",
"#X c #AF9516",
"$X c #BD9D1C",
"%X c #529B76",
"&X c #839362",
"*X c #4E9370",
"=X c #B1C5A5",
"-X c #A58B16",
";X c #9F851E",
":X c #E3BD26",
">X c #749366",
",X c #EF811A",
"<X c #AFA12E",
"1X c #48977A",
"2X c #87B597",
"3X c #2C9791",
"4X c #999F44",
"5X c #A1B98D",
"6X c #62A387",
"7X c #97B389",
"8X c #B3C195",
"9X c #BD6218",
"0X c #C39F16",
"qX c #78A987",
"wX c #BB9916",
"eX c #689770",
"rX c #7A9D5C",
"tX c #B39D28",
"yX c #768938",
"uX c #CD6010",
"iX c #A3C5A9",
"pX c #83B59B",
"aX c #609F78",
"sX c #8F993C",
"dX c #839162",
"fX c #B79D20",
"gX c #60A78D",
"hX c #A9C3A3",
"jX c #5A9D72",
"kX c #D18128",
"lX c #8B8D34",
"zX c #B17028",
"xX c #DB7218",
"cX c #9B9130",
"vX c #409B85",
"bX c #B19926",
"nX c #7E9D5A",
"mX c #D17E2A",
"MX c #5CA793",
"NX c #9BB587",
"BX c #A7A33A",
"VX c #66A370",
"CX c #DDBD2E",
"ZX c #B1B985",
"AX c #C7AB24",
"SX c #938F54",
"DX c #689D6C",
"FX c #B76A26",
"GX c #959956",
"HX c #C9B73A",
"JX c #91AD7E",
"KX c #FD7A0A",
"LX c #B79D3A",
"PX c #BBCFAD",
"IX c #76A987",
"UX c #BFCBA5",
/* pixels */
"F   .     * - + V.- *     . % L h - - - - -   . . O - * % L % % - - - - - - . L ",
"% +   - - X F 7 7 L F $ . . % % O O O O O - - - . @ $ F X - O O O O O O O O - . ",
"  + %     L % X     $ X h O O + X O - - - O O - - X % - O O - - - - - - - - O - ",
"- O X + % X . .   . - O h h X F - - - - - - O O - % . O - - O O O - O - - O - - ",
"- O O + % - * * * - O * O L 7 . ; ; p { p O - O $ X O - - O O - O - - - O - O O ",
"* * O V.+ h   - O # O O # X $ O !.!.e e e - O - % - O O - - - O - - - - - - O - ",
"- - # . Q.%   - # O - . . . k VXW ] 8 x.6 DXO - H.. . * O - - O - - - O - - O - ",
"* * O h Q.%   - * - .   h { aXW : : d.H U I._.; H.  . . - # - - O - O - - O - - ",
"* * O X + $ $ .   . - - p !.HX> 4 0 1 = 1 ).C ; F X O -   O O - - - - - O - - * ",
"O O O X % .   . O O - h p b W : B B B r : A <X%Xk H.% % % % X O - - O O .   O O ",
"V.V.X % % O * * * - - h p !.OX: B B B r B A m jXN.O - - . X % - O - -   % X % o ",
"V.% % 7 L - O - .   # - p b W 0 4 4 4 = 0 A u jXk H.- O O h % - . -   $ X + % X ",
"O O . . H.L % - O h # eXmXzXw.Q = = = >.= [ i._.p h L X V.H.$ * *   . - X % O O ",
"* O . - O h L V.t +XkXFXuX.XB.5 0 0 0 = 0 v.u _.; - 7 L   O @ * - . .     V.  * ",
"* # *     - - ! G >XKXxX|.9Xw.5 4 4 4 c Y l.l.J M h % O O     - # -   . - V.X - ",
"- O * -   X   - $ } SX,X/./.B.= = = = *.l s F.H.  X $ h *   - # * * -   X %   - ",
". -         $ - H.N.- dXdXGX= > 0 0 > 4 t.=.L.G h   . % % . - * -     - $ % -   ",
"*   L + + $ . . % H.# G 3XY.B > > > ;.%.s.=.P d . .   h h L h *   - - - $ F - - ",
"  + + . - % % % % O - { K.'.AX~ %.k.i s i s.J./ L.p h p O.M _ - - X X h + L H.. ",
"+ % $ - * - X L % - p K.Z.;.X.W X.X.&.x.&.&.6 =.DXd N.nX4Xc.j.k H.% % % % - V.% ",
"X O . O *   - - F _ e BX(.4.S < Z Z a.g l.0.u 0.'./ / &.=.5.S.d H.    X X - O   ",
"O * . - -       h T %Xs.p.x U 0 4 4 > S D ;.N `.D 5.0Xl.l.l...C p h   * % - O % ",
"O O . . - * * - { e c.X.,.-X,.Q c S c *.3 3 Q < Q g Y 8 u tX5.rXt - - - % * O % ",
"X #   O # O O - ; q.#.p.m.#.U 5 ~ ( (.= 0 4 B > B > ` f.$X;X0XR  X- O - %   -   ",
"Q.% O O * - - h ; P 9.g 1.Z c = U f f.CXB = c : c : B 4.AXbX) R t - O - %   . O ",
"% % h O # O O h ; P 9.g o.p.r c c S c *.c c r = >.B = ,.l i.) R t - - X % * - X ",
". . % X .   . h ; P t.N 1.K < 4 4 ` j = 0 4 B > : K j [.f s T.nXM L L $ . . X X ",
"  . % % . . . h O.q.).H $Xt.] 4.S k.A *.Z S Q a.g N V [ 0.&...L.k Q.X * X X L - ",
"O # O % % X X h _ b / V d.0XU ).=.1.1.Y D V N ) 0.m.m.s l.5.S.XXh % + % % L h . ",
"- * -   % % % X V.T e 6 ,.H X.o.o.m 6 i.u m i.m &.6 8 fXwX'.C t O + % * - % $ O ",
"* - . . - { r.V.P.% 1XsXM.n.6 I.I.l.l.8 E.q 8 s.8 ( {.G.yX*X X| ! { & - - X 7 * ",
"        O y g.@.oXO MX5Xz.cX#X^ ^ n.-.6.-.-.6.^ n.@XlXZX}.gXv ].@.IX6X-   . L % ",
"- - - O F 7Xh.A.| 2 7.^.PX8Xz.3.3.G.<.b.<.<.b.3.3.JXiXUX^.$.2 ! g.h.NX| {   - % ",
"% % h * * y +.+.W.g.@.| P.e.pXI I hXD.U.D.D.U.I I 2X$.' } @.g.A.IXqXoXO O - * % ",
"$ h h X X   & w F y y P.2.O n v v 7.8.$.$.8.y n v v n n ! y y } 2 n n O - O O % ",
". . . % % % X X & n 2 . % X - - - n v v v v n - - - - - O n n O - - - O - V.% h ",
"# X H.% % X + % $ + + z % + % % . - - - - - - - - - - O - - - - - - - O . L - O ",
"% % . -   $ $ + + L X       X $ L h O - O O O O - O - O - h - O - O - # - X - % ",
"X -     - h - L X - - - - - . . X X O - O - - - - - - - O L - O * # # * O . 7 F ",
"-         $ - L X -       X -   % X O - O - - - - - - - O H.H.O * O - -   * % L "
};
