/* XPM */
static char *result[] = {
/* columns rows colors chars-per-pixel */
"40 40 256 2 ",
"   c #3E9987",
".  c #3E9B87",
"X  c #429D87",
"o  c #3C9987",
"O  c #3C9785",
"+  c #449D87",
"@  c #3E9985",
"#  c #3C9787",
"$  c #409B87",
"%  c #429B87",
"&  c #409987",
"*  c #DFBD28",
"=  c #E1BD26",
"-  c #3E9785",
";  c #3E9787",
":  c #389789",
">  c #449D89",
",  c #DFBD2A",
"<  c #369585",
"1  c #E5BF20",
"2  c #E3BF22",
"3  c #DDBD2C",
"4  c #409985",
"5  c #36978C",
"6  c #DDBD2A",
"7  c #399787",
"8  c #469D88",
"9  c #E3BF24",
"0  c #429D89",
"q  c #D7B526",
"w  c #3A998A",
"e  c #E4BD21",
"r  c #439B87",
"t  c #E5BF22",
"y  c #389785",
"u  c #E1BD24",
"i  c #E1BF2A",
"p  c #D4B527",
"a  c #419B85",
"s  c #3B9985",
"d  c #479F89",
"f  c #BFA422",
"g  c #E7C226",
"h  c #389585",
"j  c #CFB127",
"k  c #3B9B8D",
"l  c #E1BD28",
"z  c #459A86",
"x  c #529A74",
"c  c #CBAB1E",
"v  c #36998D",
"b  c #4F997A",
"n  c #D3AB19",
"m  c #32978E",
"M  c #C6A720",
"N  c #939037",
"B  c #DBBD2C",
"V  c #DAB520",
"C  c #CBAB24",
"Z  c #E3BF26",
"A  c #4C9E87",
"S  c #649B67",
"D  c #DCBB2B",
"F  c #579F87",
"G  c #DFBB24",
"H  c #DBBB2E",
"J  c #E5C126",
"K  c #E1BF28",
"L  c #DCB722",
"P  c #B79714",
"I  c #CDAD20",
"U  c #76A987",
"Y  c #E1C12C",
"T  c #DFBD26",
"R  c #DDB923",
"E  c #CAA616",
"W  c #E7C222",
"Q  c #BFA220",
"!  c #EBC31E",
"~  c #A6A43C",
"^  c #BD9C1C",
"/  c #52A18C",
"(  c #4B9A7C",
")  c #B49616",
"_  c #D6B320",
"`  c #C6AB27",
"'  c #DBBB27",
"]  c #359688",
"[  c #549C7A",
"{  c #409784",
"}  c #CBAD26",
"|  c #B3981F",
" . c #379C8D",
".. c #739C59",
"X. c #D4B72C",
"o. c #539C77",
"O. c #B0C5A5",
"+. c #4B9A82",
"@. c #B99E20",
"#. c #5AA48D",
"$. c #9FA140",
"%. c #C4A624",
"&. c #78AB89",
"*. c #569A76",
"=. c #B09620",
"-. c #39978A",
";. c #409D87",
":. c #BB9813",
">. c #E4C12A",
",. c #6CA56F",
"<. c #EBC525",
"1. c #B59E3F",
"2. c #90BB9E",
"3. c #ADC5A5",
"4. c #5B996E",
"5. c #AB911C",
"6. c #5CA38B",
"7. c #D9B92A",
"8. c #DBBD2E",
"9. c #4A9B87",
"0. c #369583",
"q. c #68A387",
"w. c #E3BD24",
"e. c #969037",
"r. c #7AA987",
"t. c #D98928",
"y. c #C4A321",
"u. c #679B63",
"i. c #B9A32A",
"p. c #D9B826",
"a. c #669C6B",
"s. c #D0AC1E",
"d. c #5EA38D",
"f. c #5A9A72",
"g. c #B5981A",
"h. c #85AE88",
"j. c #D6B82C",
"k. c #8FB99D",
"l. c #C4A41A",
"z. c #B2BE8F",
"x. c #E97817",
"c. c #A9983D",
"v. c #4F9974",
"b. c #7FAB87",
"n. c #EC8219",
"m. c #659F72",
"M. c #B3930D",
"N. c #5CA287",
"B. c #E3C222",
"V. c #B8A32D",
"C. c #E87F1F",
"Z. c #171710",
"A. c #6E9B5C",
"S. c #3F9C8A",
"D. c #6A8664",
"F. c #E5BE26",
"G. c #529E86",
"H. c #CDA619",
"J. c #E9AB1C",
"K. c #429987",
"L. c #469B87",
"P. c #453E19",
"I. c #D1B127",
"U. c #3B9E8D",
"Y. c #E1BF26",
"T. c #ABA33A",
"R. c #6DA687",
"E. c #A9B989",
"W. c #439E8A",
"Q. c #5EA58D",
"!. c #ED7E1C",
"~. c #BDCBA5",
"^. c #62A387",
"/. c #B7661A",
"(. c #3A9989",
"). c #BB991C",
"_. c #A19D3C",
"`. c #959F46",
"'. c #9BB587",
"]. c #9D9D30",
"[. c #AF8F14",
"{. c #89B797",
"}. c #EB720E",
"|. c #789F60",
" X c #489376",
".X c #66A772",
"XX c #BB9D28",
"oX c #B19718",
"OX c #628768",
"+X c #5A9F7A",
"@X c #D7A324",
"#X c #D7BB30",
"$X c #F18316",
"%X c #549D7C",
"&X c #EF7C16",
"*X c #ABC7A7",
"=X c #58A18B",
"-X c #C76A18",
";X c #C76C1A",
":X c #9D953A",
">X c #97B389",
",X c #A3A33C",
"<X c #ED7C12",
"1X c #C7A91E",
"2X c #AD952C",
"3X c #E1BD22",
"4X c #A98F18",
"5X c #C75C14",
"6X c #58A187",
"7X c #877848",
"8X c #9D9338",
"9X c #AF951E",
"0X c #B3A530",
"qX c #E5BD20",
"wX c #D36E18",
"eX c #C9AD2C",
"rX c #60A387",
"tX c #9D9F40",
"yX c #8FB38F",
"uX c #2A9B97",
"iX c #CF5608",
"pX c #959D46",
"aX c #97B999",
"sX c #D36A1A",
"dX c #74AD74",
"fX c #78875E",
"gX c #BD6E26",
"hX c #9B9D3C",
"jX c #9BC3A7",
"kX c #8F8D4E",
"lX c #72893E",
"zX c #5EA795",
"xX c #DB8124",
"cX c #B19B3A",
"vX c #838930",
"bX c #D3B128",
"nX c #72855E",
"mX c #A1952E",
"MX c #D36614",
"NX c #81B399",
"BX c #DFBF2A",
"VX c #B39512",
"CX c #E18B20",
"ZX c #B76A26",
"AX c #CD8520",
"SX c #349583",
"DX c #78A76C",
"FX c #A3B585",
"GX c #FB8310",
"HX c #859D52",
"JX c #32958B",
"KX c #A9C3A3",
"LX c #E1A526",
"PX c #3A978B",
"IX c #95B999",
"UX c #BBCDAD",
/* pixels */
"+   @     ; - + K.- ;     @ % r a - - - - -   @ @ O - ; r + % % - - - - - - @ + ",
"r 8   - - & + 8 8 + + $ @ @ % r O O O O O - - - @ . $ + & - O O O O O O O O - @ ",
"  8 r     + r &     $ & 4 O O 8 & O - - - O O - - & % - O O - - - - - - - - O - ",
"- O & + % & @ @   @ - O a 4 & + - O - - - - - - - % @ O - - O O O - O - - O - - ",
"- O O + % - ; ; ; - O ; O + 8 - O - 7 7 7 : 7 O a & O - - O O - O - - - O - O O ",
"; ; O K.+ 4   - O # O O O & % O O O b b b %X%X- $ - O O - - - O - - - - - - O - ",
"- - # @ 8 %   - # O - @ @   & @ O *.0Xi.i.7.#X,.K.  @ ; O - - O - - - O - - O - ",
"; ; O 4 d %   - ; - @     - - o ( V.L 7.R = * T DX-.4 @ - # - - O - O - - O - - ",
"; ; O & + $ $ @   @ - O O O - 7 [ p.e * t 2 = 1 H m.JX4   O O - - - - - O - - ; ",
"O O O & r @   @ O O - @ - - 7 [ X.= T H T T 6 = l ,.w r r r & O - - O O @   O O ",
"K.K.& % r O ; ; ; ; ;   - - : o.* J C P.C g I.P.XX,.JX4 @ & % - O - -   r & % X ",
"K.r % 8 + - O - @ @ - - O - : o.T W M Z.%.<.j Z.=.dX] O # & r - @ -   $ & + % & ",
"O O @ @ r + % - O - O O - - : v.` l 7.2X7.AXCX/.xXt.ZXD.W.z $ ; ;   @ - & r O O ",
"; O @ - O 4 + & O - O - O - -.v.f 3Xt g 2 -Xx.GX!.!.}.xXgXOX .- ; @ @     K.  ; ",
"; # ;     - - & 4 O - - O - : v.M G u D u ;Xx.<XC.n.$XwXiXnX .{ # -   @ - K.& - ",
"- O ; -   &   - % - O - - - O { |.B T H * @XLXn.C.sXMX5X7X+.# - ; ; -   & %   - ",
"@ -         $ - % a O - - O - : ( } e u e B.2 J.J.kXD.fX+.w 4 ; -     - $ r -   ",
";   + + + $ @ @ % a - - - O K.0 [ f qXW t e 9 B.! .XuXU.& r   -   - - - $ 8 - - ",
"  8 + @ - % % r % # 5 5 -.4 % ( ,XI.I ` c G u s.L T.hXf.-.z & - - & & 4 8 + K.@ ",
"+ % $ - ; - & + S.*.pXpXHX> k b f D j eX} 7.B j X.I._ T.x : a % % % % r % - K.% ",
"& O @ O ;   ; 4 k m.H.V j ,X$.~ p T Z , Z T * t 3 , F.L 0Xf.7 4 &     & & - O   ",
"O ; @ - -   4 w *.tX1X>.L M.[.P 2 2 3X* e u = qX* T _ p.n S m { O @   ; r - O % ",
"O O @ @ - ; 4 5 u.y.` 7.@.@.@.Q D 6 6 H 6 6 3 * H D f X.bX$.f.7 - O O - r ; O % ",
"& #   O # O - 5 S l.Q ^ c ! J J 2 3X2 * 2 u T qX* = V I G n ..5 { - O - r   -   ",
"8 % O O ; - - 5 S y.=.5.>.u D * * * * B T * 6 = B 6 Z %.p C A.5 { - O - r   @ O ",
"r r 4 O # O - 5 S %.| 9Xi T D 6 6 6 6 H 6 6 D * H 3 BX%.p C A.5 { O - & % ; - & ",
"@ @ % & @   a v u.E @.| c qXT u 2 u 2 * 2 u T qX* = 1 %.V c ..k a % + $ @ @ & & ",
"  @ % % @ @ @ w *.tXf | 4XJ Y * * * * B * * 6 = B 6 = j 7.s...v + d & ; & & + - ",
"O # O % r & & 4 k m.E @.| E c 9 2 3X3X* e u T qX* = e u V ~ 4.-.4 r + r r + 4 @ ",
"- ; -   % r r % (.+X_.).9X5.9Xp , , * 3 l , 3 Y.8.D i Y n a.m O O + % ; - r $ O ",
"; - @ @ - O < K.G.k  XlX:X:.^ f q q q X.q q p V X.>.n E ].x 7 9.z 7 o - - & 8 ; ",
"        O 6X&.R.rXs d.jXz.N vXVXVXP P g.P P ) M.oXl.mXc.FXzX0.G.R.U ^.-   @ + r ",
"- - - O L.>XE.h.9.h / IX~.*XyX1.1.8XN N N N e.cX1.c.z.UXIX=X0.z r.E.'.9.O   - r ",
"r r 4 ; ; 6X&.&.b.r.q.+./ Q.{.2.k.KXO.3.O.O.3.k.k.NX=X9.z q.r.h.U U rXO O - ; % ",
"$ a 4 & &   o y L.F F G.o O 0.0.0.=Xd.6.6.d.=Xh 0.0.h h +.F F 9.< h h O - O O % ",
"@ @ @ r r r & & o h < @ r & - - - h 0.0.0.0.h - - - - - O h h O - - - O - K.% 4 ",
"# & % % % & 8 % $ + + 8 r + r r @ - - - - - - - - - - O - - - - - - - O @ + - O ",
"% % @ -   $ $ + + + &       & $ + 4 O - O O O O - O - O - a - O - O - # - & - % ",
"& -     - 4 - + & - - - - - @ @ & & O - O - - - - - - - O + - O ; # # ; O @ 8 + ",
"-         $ - + & -       & -   r & O - O - - - - - - - O r % O ; O - -   ; r r "
};
