/* XPM */
static char *result[] = {
/* columns rows colors chars-per-pixel */
"40 40 256 2 ",
"   c #3E9987",
".  c #3E9985",
"X  c #3C9987",
"o  c #429D87",
"O  c #3C9785",
"+  c #449D87",
"@  c #3E9B87",
"#  c #3C9787",
"$  c #409B87",
"%  c #429B87",
"&  c #409987",
"*  c #DFBD28",
"=  c #3E9787",
"-  c #E3BF22",
";  c #E1BD26",
":  c #3E9785",
">  c #369585",
",  c #E3BF24",
"<  c #449D89",
"1  c #389789",
"2  c #DFBD2A",
"3  c #38998B",
"4  c #DDBD2A",
"5  c #DDBD2C",
"6  c #469D88",
"7  c #409985",
"8  c #E1BF2A",
"9  c #3F9C88",
"0  c #E1BF27",
"q  c #379785",
"w  c #34978B",
"e  c #E5BF20",
"r  c #DFBD26",
"t  c #429D89",
"y  c #389A8D",
"u  c #3B9985",
"i  c #509A79",
"p  c #429A86",
"a  c #E3BF26",
"s  c #659A6B",
"d  c #3A9787",
"f  c #D1A919",
"g  c #78AB89",
"h  c #E4BE20",
"j  c #389585",
"k  c #E5BF22",
"l  c #C2A624",
"z  c #369583",
"x  c #DBBC2A",
"c  c #5BA38C",
"v  c #939036",
"b  c #D0B022",
"n  c #E9C524",
"m  c #E3BD24",
"M  c #449B87",
"N  c #D0B127",
"B  c #D9B823",
"V  c #E5C222",
"C  c #EF7B14",
"Z  c #359A8E",
"A  c #D9B92A",
"S  c #389787",
"D  c #5D9B70",
"F  c #CFAD21",
"G  c #579F87",
"H  c #459F89",
"J  c #DFBB23",
"K  c #E7C223",
"L  c #D6B72B",
"P  c #B3971A",
"I  c #EC821A",
"U  c #90BA9D",
"Y  c #469882",
"T  c #61996C",
"R  c #3A9988",
"E  c #D7B526",
"W  c #E3C02A",
"Q  c #489E88",
"!  c #BEA62B",
"~  c #52A18C",
"^  c #679D6B",
"/  c #84AD88",
"(  c #C9AA25",
")  c #59A188",
"_  c #C8A316",
"`  c #C9A61E",
"'  c #D7AE26",
"]  c #499B87",
"[  c #369689",
"{  c #DBBB2C",
"}  c #BF9E1A",
"|  c #B59717",
" . c #D26716",
".. c #ACA53A",
"X. c #D5B320",
"o. c #DFBF2A",
"O. c #60A387",
"+. c #4E9E88",
"@. c #A0A23D",
"#. c #34978E",
"$. c #7C9E5B",
"%. c #B89714",
"&. c #B59E3C",
"*. c #E5C32B",
"=. c #3E9B8B",
"-. c #EDC824",
";. c #7BAA87",
":. c #B0C5A5",
">. c #D7B524",
",. c #3C9B8B",
"<. c #60A174",
"1. c #B79D21",
"2. c #C8A920",
"3. c #C8AE2B",
"4. c #5EA78D",
"5. c #ADC5A5",
"6. c #B29410",
"7. c #DFBB27",
"8. c #DBBD2E",
"9. c #C75B12",
"0. c #B09820",
"q. c #DDBB2A",
"w. c #68A386",
"e. c #439884",
"r. c #E8BF1E",
"t. c #CBA718",
"y. c #5EA38D",
"u. c #E3BD26",
"i. c #709B5B",
"p. c #569D7C",
"a. c #AA9A3E",
"s. c #579A74",
"d. c #BA9F21",
"f. c #D7B92D",
"g. c #DBB928",
"h. c #E1BD24",
"j. c #9DA144",
"k. c #B99D1D",
"l. c #4D9C85",
"z. c #AC9522",
"x. c #C5A520",
"c. c #4F9977",
"v. c #D5B529",
"b. c #6DA687",
"n. c #959E46",
"m. c #5A9D78",
"M. c #5F9D6F",
"N. c #A39F34",
"B. c #A69F3A",
"V. c #BFA324",
"C. c #C6A823",
"Z. c #DAB51F",
"A. c #CBAB20",
"S. c #C55F15",
"D. c #469B87",
"F. c #74A56C",
"G. c #75A987",
"H. c #A9B989",
"J. c #E9C121",
"K. c #93BA9C",
"L. c #769B5E",
"P. c #E08A1F",
"I. c #DFBE26",
"U. c #C3A829",
"Y. c #B4971C",
"T. c #BCA224",
"R. c #B26B2A",
"E. c #E8AA1C",
"W. c #CBAF28",
"Q. c #3A9B8F",
"!. c #B18F11",
"~. c #B09727",
"^. c #18160E",
"/. c #529974",
"(. c #C5A518",
"). c #CFA512",
"_. c #BFCBA5",
"`. c #999D3E",
"'. c #D3B32A",
"]. c #B19B3A",
"[. c #D7BB2C",
"{. c #CDB12A",
"}. c #D5B524",
"|. c #DDB924",
" X c #9BC3A9",
".X c #E7C326",
"XX c #E3A522",
"oX c #6A8160",
"OX c #E5BF1E",
"+X c #4E9370",
"@X c #BD9918",
"#X c #97B389",
"$X c #4E997C",
"%X c #DDBD2E",
"&X c #B59714",
"*X c #EB7E16",
"=X c #769B60",
"-X c #5C8F72",
";X c #D3AD16",
":X c #CBB12E",
">X c #959B3A",
",X c #B7681C",
"<X c #A19734",
"1X c #CBA518",
"2X c #D5BB30",
"3X c #BD9910",
"4X c #D78126",
"5X c #A9C3A3",
"6X c #A78F1C",
"7X c #A1B98D",
"8X c #2A9995",
"9X c #CDA71E",
"0X c #979138",
"qX c #89B597",
"wX c #E3BD20",
"eX c #9BB587",
"rX c #B79712",
"tX c #A58D24",
"yX c #EB720E",
"uX c #5EA57A",
"iX c #F18114",
"pX c #E77A1A",
"aX c #B3C195",
"sX c #CDAD20",
"dX c #70A570",
"fX c #5C8B6E",
"gX c #83B59B",
"hX c #62A37A",
"jX c #9D9338",
"kX c #668966",
"lX c #549F87",
"zX c #748738",
"xX c #549B7C",
"cX c #97B999",
"vX c #878952",
"bX c #8B8B34",
"nX c #8FAF85",
"mX c #817E50",
"MX c #87892E",
"NX c #DFB51E",
"BX c #74855E",
"VX c #4A4016",
"CX c #CB7C1E",
"ZX c #D5852C",
"AX c #A3C3A7",
"SX c #9D932E",
"DX c #443C18",
"FX c #85A558",
"GX c #509976",
"HX c #D1B932",
"JX c #F98314",
"KX c #5EA17A",
"LX c #5AA793",
"PX c #B1B985",
"IX c #D5A122",
"UX c #BDCFAD",
/* pixels */
"M   .     = : + p : =     . % M p : : : : :   . . O : = % M % % : : : : : : . M ",
"% 6   : : & M 6 6 M M $ . . % % O O O O O : : : . @ $ M p : O O O O O O O O : . ",
"  6 %     M % &     $ & 7 O O 6 p O : : : O O : : & % : O O : : : : : : : : O : ",
": O & + % & . .   . : O p 7 p M : : : : : : : O : % . O : : O O O : O : : O : : ",
": O O + % : = = = : O = O M 6 . O S S S S S O O $ p O : : O O : O : : : O : O O ",
"= = O p + 7   : O # O O O & % # # xXp.i $Xi : O % : O O : : : O : : : : : : O : ",
": : # . Q %   : # O : . . & p X <.2Xq.! T.V.s # % . . = O : : O : : : O : : O : ",
"= = O 7 Q %   : = : .     : d <.[.; h.A g.7.! /.,.7 . . : # : : O : O : : O : : ",
"= = O & + $ $ .   . : O : S p.HXe - - * k - g.M.=.p O :   O O : : : : : O : : = ",
"O O O & % .   . O O : . 7 [ m.u.* 7.; 5 7.* 4 x dX3 M % % % p O : : O O .   O O ",
"p p & % % O = = = = = . 7 [ KX( DXC..Xv.VX~.*.r.F.w 7 : . & % : O : :   % & % o ",
"p % % 6 M : O : . . : O O > hX! ^.V.-.'.^.tX-.r.F.3 7 O O 7 % : . :   $ p + % p ",
"O O . . % M % : : O : 7 -XR.ZXP.,XP.CX' ~.N %XF ^ 3 M p p % $ = =   . : & % O O ",
"= O . : O 7 M & : 3 fXR.4XyXC C JXC S.' -.k r t.s 3 6 M   O @ = : . .     p   = ",
"= # =     : : p e.3 kX9. .iXI I *X*XS.' , h.* f ^ 3 M O O     : # :   . : p p : ",
": O = :   &   : % O Y mXS. . .pXI XXIXA * * 8.FXY   % 7 =   : # = = :   & %   : ",
". :         $ : % p 1 Y BXoXvXE.E.m V h.wXe b GX3 p   % % . : = :     : $ % :   ",
"=   M + + $ . . % & : # y 8XuXK V h h k k J.C./.3 7   $ p M 7 =   : : : $ 6 : : ",
"  6 + . : % % % % O : 1 $X`.B.J F J - W.A.A.N ..s.R 7 R 3 ,.9 : : & p 7 6 M p . ",
"+ % $ : = : & M % : 1 $X@.X.N A N { q.:XW.W.f.9Xs #.1 $.n.n.^ ,.% % % % % : p % ",
"p O . O =   : : D.=.s.B.NXa 2 I.a r r 2 a a * >...j.@.3.NX9Xi.#.p     p p : O   ",
"O = . : :       7 Q.M.` |.X.7.h.- - - * wXh.r J.d.!.!.X.n ( N.D 1 7   = % : O % ",
"O O . . : = = : d i j.:XA V.A 4 q.4 q.{ q.4 5 * U.1.d.1.A 3._ $.w : : : % = O % ",
"& #   O # O O : [ s f r sXZ.7.h.- - - * - h.r e 8 a J.F } d._ =Xw : O : %   :   ",
"Q % O O = : : 7 1 T C.L l , q.* * * * { r * q.; { q.r *.P z.` L.w : O : %   . O ",
"% % 7 O # O O 7 1 T C.L U.7.{ q.q.q.q.8.q.4 { r 8.{ * W Y.z.x.=Xw : : & % = : & ",
". . % p .   . p 1 T ` B x.h r - - h.- * - h.r e * r h sX| 1.).$.y M M $ . . p p ",
"  . % % . . . 7 3 s 9X{ N h.q.* * * * { * * q.; { o..XY.0.! N.D =.Q p = & & M : ",
"O # O % % & & 7 t m.@.}.h.OXr h.- h.- * wXh.r h * sXt.k.1.1Xi.#.7 % + % % M 7 . ",
": = :   % % % p p Q.D C.o.W { 2 2 2 * %X8 2 5 0 L 0.6X0.@XB.D [ O + % = : % $ O ",
"= : . . : d q p +.$ GX>X_ ;XW E E E }.v.}.E v.B U.k.3X<XzX+Xw l.M d X : : p 6 = ",
"        O ) g b.O.O LX7Xa.SX(.&X6.&X%.Y.rX%.| 6.P MXbXPX Xy.z lXb.G.O.:   . M % ",
": : : O D.#XH./ ] > ~ cXUXaXa.&.&.jXv v v v 0X].&.nXAX_.cXc z p ;.H.eX] d   : % ",
"% % 7 = = ) g g / ;.w.l.~ c gXU U 5X:.5.:.:.5.U U qXc +.Y w.;./ G.g O.O O : = % ",
"$ p 7 p &   X S D.G G +.X O j z z ~ y.c c y.) j z z j j ] G G ] > j j O : O O % ",
". . . % % % & p X j > . % & : : : j z z z z j : : : : : O j j O : : : O : p % 7 ",
"# & % % % p 6 % $ + + 6 % + % % . : : : : : : : : : : O : : : : : : : O . M : O ",
"% % . :   $ $ + + M &       & $ M 7 O : O O O O : O : O : p : O : O : # : p : % ",
"& :     : 7 : M p : : : : : . . & p O : O : : : : : : : O M : O = # # = O . 6 M ",
":         $ : M & :       & :   % & O : O : : : : : : : O % % O = O : :   = % M "
};
